<?xml version="1.0" encoding="UTF-8" standalone="no"?>
<!-- Generator: Adobe Illustrator 13.0.0, SVG Export Plug-In . SVG Version: 6.00 Build 14948)  -->

<svg
   xmlns:dc="http://purl.org/dc/elements/1.1/"
   xmlns:cc="http://creativecommons.org/ns#"
   xmlns:rdf="http://www.w3.org/1999/02/22-rdf-syntax-ns#"
   xmlns:svg="http://www.w3.org/2000/svg"
   xmlns="http://www.w3.org/2000/svg"
   xmlns:xlink="http://www.w3.org/1999/xlink"
   xmlns:sodipodi="http://sodipodi.sourceforge.net/DTD/sodipodi-0.dtd"
   xmlns:inkscape="http://www.inkscape.org/namespaces/inkscape"
   version="1.1"
   id="Layer_1"
   x="0px"
   y="0px"
   width="320"
   height="320"
   viewBox="0 0 300.00001 299.99999"
   enable-background="new 0 0 291.948 375.074"
   xml:space="preserve"
   inkscape:version="0.92.1 r"
   sodipodi:docname="icon.svg"
   inkscape:export-filename="/Users/david/src/tessellationapp/fd.png"
   inkscape:export-xdpi="17.09"
   inkscape:export-ydpi="17.09"><metadata
     id="metadata5967"><rdf:RDF><cc:Work
         rdf:about=""><dc:format>image/svg+xml</dc:format><dc:type
           rdf:resource="http://purl.org/dc/dcmitype/StillImage" /><dc:title /></cc:Work></rdf:RDF></metadata><defs
     id="defs5965"></defs><sodipodi:namedview
     pagecolor="#ffffff"
     bordercolor="#666666"
     borderopacity="1"
     objecttolerance="10"
     gridtolerance="10"
     guidetolerance="10"
     inkscape:pageopacity="0"
     inkscape:pageshadow="2"
     inkscape:window-width="1280"
     inkscape:window-height="688"
     id="namedview5963"
     showgrid="false"
     inkscape:zoom="1.7796723"
     inkscape:cx="146.60423"
     inkscape:cy="127.40008"
     inkscape:window-x="-2"
     inkscape:window-y="22"
     inkscape:window-maximized="0"
     inkscape:current-layer="Layer_1" /><g
     id="g5913"
     transform="matrix(0.92879258,0,0,0.92592593,9.6331363,-64.763892)"
     inkscape:export-xdpi="43.200001"
     inkscape:export-ydpi="43.200001"><g
       id="g5917"><path
         d="m 287.706,84.496 -0.245,0.245 0.247,0.247 z m -0.559,113.386 h 0.068 V 84.986 l -56.203,56.203 H 117.627 L 60.934,84.496 V 197.882 H 60.866 L 4.241,254.575 117.627,367.961 h 113.385 l 56.693,-56.693 v 0 l -56.693,-56.692 z"
         id="path5932"
         style="fill:white"
         inkscape:connector-curvature="0" /><path
         d="m 287.706,84.496 -0.245,0.245 0.247,0.247 z m -0.559,113.386 h 0.068 V 84.986 l -56.203,56.203 H 117.627 L 60.934,84.496 V 197.882 H 60.866 L 4.241,254.575 117.627,367.961 h 113.385 l 56.693,-56.693 v 0 l -56.693,-56.692 z"
         id="path5934"
         inkscape:connector-curvature="0"
         style="fill:none;stroke:#faa722;stroke-width:6" /></g></g><rect
     x="104.08313"
     y="80.654999"
     width="44"
     height="63"
     id="rect5936"
     style="fill:#ffffff;stroke:#000000;stroke-width:9" /><rect
     x="180.39014"
     y="81.654999"
     width="44"
     height="63"
     id="rect5938"
     style="fill:#ffffff;stroke:#000000;stroke-width:9" /><circle
     cx="117.68713"
     cy="113.25899"
     r="13.604"
     id="circle5940" /><circle
     cx="197.39014"
     cy="113.655"
     r="13.604"
     id="circle5942" /><path
     d="m 202.00413,-81.574005 c -0.333,0 -0.667,0 -1,0"
     id="path5944"
     inkscape:connector-curvature="0" /><ellipse
     cx="166.62213"
     cy="246.67398"
     rx="66.5"
     ry="45.326"
     id="ellipse5959"
     style="stroke:#000000;stroke-width:3" /><circle
     cx="134.47813"
     cy="244.436"
     r="13.604"
     id="circle5961"
     style="fill:#ffffff;stroke:#000000" /></svg>
